HIERARCHY
ROOT root
{
	OFFSET -0.077679 0.000000 0.863643
	CHANNELS 6 Xposition Yposition Zposition Xrotation Yrotation Zrotation
	JOINT spine1
	{
		OFFSET 0.084075 -0.000000 0.098215
		CHANNELS 3 Xrotation Yrotation Zrotation
		JOINT spine2
		{
			OFFSET 0.004518 -0.000000 0.238221
			CHANNELS 3 Xrotation Yrotation Zrotation
			JOINT chest
			{
				OFFSET -0.000153 0.000000 0.205591
				CHANNELS 3 Xrotation Yrotation Zrotation
				JOINT l_shoulder
				{
					OFFSET 0.011130 -0.000000 0.203436
					CHANNELS 3 Xrotation Yrotation Zrotation
					JOINT l_arm1
					{
						OFFSET -0.023968 0.201341 -0.039879
						CHANNELS 3 Xrotation Yrotation Zrotation
						JOINT l_arm2
						{
							OFFSET 0.002834 0.255826 -0.019338
							CHANNELS 3 Xrotation Yrotation Zrotation
							JOINT l_arm2.001
							{
								OFFSET 0.000000 0.278303 0.000000
								CHANNELS 3 Xrotation Yrotation Zrotation
								JOINT l_arm2.002
								{
									OFFSET 0.000000 0.097545 0.027868
									CHANNELS 3 Xrotation Yrotation Zrotation
									JOINT l_arm2.003
									{
										OFFSET 0.000000 0.073227 -0.001151
										CHANNELS 3 Xrotation Yrotation Zrotation
										End Site
										{
											OFFSET 0.000000 0.069050 -0.006363
										}
									}
								}
								JOINT l_thumb1
								{
									OFFSET 0.036186 0.069959 -0.025989
									CHANNELS 6 Xposition Yposition Zposition Xrotation Yrotation Zrotation
									JOINT l_thumb2
									{
										OFFSET 0.020316 0.016822 -0.014415
										CHANNELS 6 Xposition Yposition Zposition Xrotation Yrotation Zrotation
										JOINT l_thumb3
										{
											OFFSET 0.007269 0.030947 -0.011068
											CHANNELS 6 Xposition Yposition Zposition Xrotation Yrotation Zrotation
											End Site
											{
												OFFSET 0.004416 0.030806 0.000000
											}
										}
									}
								}
							}
						}
					}
				}
				JOINT neck
				{
					OFFSET 0.011130 -0.000000 0.203436
					CHANNELS 3 Xrotation Yrotation Zrotation
					JOINT Chest.002
					{
						OFFSET -0.034927 0.000000 0.167239
						CHANNELS 3 Xrotation Yrotation Zrotation
						End Site
						{
							OFFSET -0.000000 0.000000 0.197672
						}
					}
				}
				JOINT r_shoulder
				{
					OFFSET 0.011130 -0.000000 0.203436
					CHANNELS 3 Xrotation Yrotation Zrotation
					JOINT r_arm1
					{
						OFFSET -0.023968 -0.201341 -0.039879
						CHANNELS 3 Xrotation Yrotation Zrotation
						JOINT r_arm2
						{
							OFFSET 0.002834 -0.255826 -0.019338
							CHANNELS 3 Xrotation Yrotation Zrotation
							JOINT r_arm2.001
							{
								OFFSET -0.000000 -0.278303 0.000000
								CHANNELS 3 Xrotation Yrotation Zrotation
								JOINT r_arm2.002
								{
									OFFSET 0.000873 -0.097759 0.028598
									CHANNELS 3 Xrotation Yrotation Zrotation
									JOINT r_arm2.003
									{
										OFFSET -0.000000 -0.073227 -0.001151
										CHANNELS 3 Xrotation Yrotation Zrotation
										End Site
										{
											OFFSET -0.000000 -0.069050 -0.006363
										}
									}
								}
								JOINT r_thumb1
								{
									OFFSET 0.036186 -0.069959 -0.025989
									CHANNELS 6 Xposition Yposition Zposition Xrotation Yrotation Zrotation
									JOINT r_thumb2
									{
										OFFSET 0.020316 -0.016822 -0.014415
										CHANNELS 3 Xrotation Yrotation Zrotation
										JOINT r_thumb3
										{
											OFFSET 0.007269 -0.030947 -0.011068
											CHANNELS 3 Xrotation Yrotation Zrotation
											End Site
											{
												OFFSET 0.004416 -0.030806 0.000000
											}
										}
									}
								}
							}
						}
					}
				}
			}
		}
	}
	JOINT l_hip
	{
		OFFSET 0.084075 -0.000000 0.098215
		CHANNELS 3 Xrotation Yrotation Zrotation
		JOINT l_leg1
		{
			OFFSET -0.008190 0.093423 -0.082916
			CHANNELS 6 Xposition Yposition Zposition Xrotation Yrotation Zrotation
			JOINT l_leg2
			{
				OFFSET 0.010576 0.000000 -0.363962
				CHANNELS 3 Xrotation Yrotation Zrotation
				JOINT l_foot
				{
					OFFSET -0.010576 0.000000 -0.485475
					CHANNELS 3 Xrotation Yrotation Zrotation
					End Site
					{
						OFFSET 0.212586 -0.012401 -0.015962
					}
				}
			}
		}
	}
	JOINT r_hip
	{
		OFFSET 0.084075 -0.000000 0.098215
		CHANNELS 3 Xrotation Yrotation Zrotation
		JOINT r_leg1
		{
			OFFSET -0.008190 -0.093423 -0.082916
			CHANNELS 6 Xposition Yposition Zposition Xrotation Yrotation Zrotation
			JOINT r_leg2
			{
				OFFSET 0.010576 0.000000 -0.363962
				CHANNELS 3 Xrotation Yrotation Zrotation
				JOINT r_foot
				{
					OFFSET -0.010576 0.000000 -0.485475
					CHANNELS 3 Xrotation Yrotation Zrotation
					End Site
					{
						OFFSET 0.212586 0.012401 -0.015962
					}
				}
			}
		}
	}
}
MOTION
Frames: 4
Frame Time: 0.041667
-0.468266 0.000000 0.668655 -0.000156 51.967880 0.000156 0.150988 25.000972 -4.105945 -0.000006 13.092674 -0.000011 0.817394 20.518250 -3.818372 16.433519 -5.044861 -14.191301 -79.842780 -25.299956 -107.713497 -22.840380 3.175165 -20.234328 14.900386 0.453465 -3.035677 16.280893 7.352660 -2.132452 -6.244031 15.777508 -0.670539 0.036186 0.069959 -0.025990 2.652760 1.857107 18.465700 0.020316 0.016822 -0.014415 -4.336232 4.655259 -17.275669 0.007269 0.030947 -0.011068 -0.000003 -0.000005 -2.881560 0.000001 10.400702 0.000000 -5.077749 -31.344380 -2.503483 -4.346279 0.293021 0.959816 75.329706 -22.365965 100.109632 8.742448 -15.244718 26.705848 -37.510719 -0.177961 -3.229449 -5.680402 0.286955 1.400443 -5.717784 -2.502336 6.478146 0.036186 -0.069959 -0.025990 2.679351 6.961811 -27.203037 19.917474 -5.861270 34.368665 25.643822 3.549968 -0.808171 -0.000002 0.000006 -0.000003 -0.005509 0.093383 -0.082385 4.661630 0.958825 1.844791 -146.719867 94.614471 144.466834 -0.177085 42.297855 -3.288985 -0.000003 0.000005 0.000003 -0.006019 -0.093397 -0.082485 -5.082349 61.228869 1.188566 179.726005 154.413160 -177.332994 -7.060723 57.723513 6.940210 
-0.463539 0.000000 0.621691 -0.000309 67.351423 0.000318 -1.552904 15.492665 -11.036252 -0.000005 13.092672 -0.000010 1.920416 18.535938 -10.779386 16.433519 -5.044863 -14.191303 -79.842780 -25.299958 -107.713504 -42.905189 10.135400 -17.880836 -27.982324 -2.870839 4.983293 16.280890 7.352663 -2.132455 -6.244030 15.777512 -0.670541 0.036186 0.069959 -0.025990 2.652760 1.857109 18.465703 0.020316 0.016822 -0.014415 -4.336238 4.655260 -17.275667 0.007269 0.030947 -0.011068 -0.000002 0.000002 -2.881564 0.000002 20.754904 0.000002 -10.813054 -0.226037 -6.985015 -4.346283 0.293015 0.959813 75.226918 -20.909921 105.527823 8.742451 -15.244718 26.705848 -37.510730 -0.177962 -3.229454 -5.680403 0.286957 1.400443 -5.717783 -2.502339 6.478153 0.036186 -0.069959 -0.025990 2.679353 6.961810 -27.203037 19.917480 -5.861271 34.368662 25.643821 3.549970 -0.808168 0.000002 0.000003 -0.000003 -0.005509 0.093383 -0.082385 4.283151 12.508562 1.889394 -146.719867 94.614471 144.466834 -0.177084 42.297866 -3.288985 0.000001 0.000001 0.000003 -0.006019 -0.093397 -0.082485 -5.403789 67.234640 1.478445 179.726005 154.413160 -177.332994 -7.060722 57.723506 6.940209 
-0.458813 0.000000 0.598952 -0.000905 81.077597 0.000912 -3.423738 10.435159 -14.597899 -0.000005 13.092672 -0.000011 1.250230 13.901039 -14.205496 16.433519 -5.044859 -14.191308 -79.842774 -25.299962 -107.713504 -54.016469 13.418426 -15.605246 -50.904392 -6.782463 7.691554 16.280890 7.352661 -2.132455 -6.244034 15.777512 -0.670543 0.036186 0.069959 -0.025990 2.652757 1.857100 18.465703 0.020316 0.016822 -0.014415 -4.336232 4.655258 -17.275664 0.007269 0.030947 -0.011068 -0.000007 -0.000000 -2.881561 0.000004 25.503687 -0.000001 -10.971713 16.157154 -12.700398 -4.346279 0.293019 0.959813 76.459193 -22.628304 109.206706 8.742448 -15.244716 26.705848 -37.510726 -0.177959 -3.229451 -5.680399 0.286955 1.400446 -5.717780 -2.502337 6.478147 0.036186 -0.069959 -0.025990 2.679353 6.961808 -27.203035 19.917477 -5.861271 34.368662 25.643822 3.549965 -0.808169 0.000002 0.000005 -0.000005 -0.005509 0.093383 -0.082384 4.093346 17.989395 1.939370 -146.719854 94.614465 144.466847 -0.177085 42.297862 -3.288986 0.000001 0.000002 0.000002 -0.006019 -0.093397 -0.082485 -5.653290 70.468141 1.711232 179.726005 154.413160 -177.332994 -7.060723 57.723513 6.940209 
-0.458813 0.000000 0.598952 72.645974 92.341385 -84.819516 -3.423738 10.435160 -14.597899 -0.000006 13.092670 -0.000008 -0.692356 6.858880 -13.644297 12.765523 -6.887056 -27.600540 -71.620442 -17.518832 -86.110947 -54.016469 13.418422 -15.605246 -50.904392 -6.782463 7.691556 16.280895 7.352664 -2.132454 -6.244029 15.777510 -0.670543 0.036186 0.069959 -0.025990 2.652760 1.857106 18.465703 0.020316 0.016822 -0.014415 -4.336234 4.655259 -17.275667 0.007269 0.030947 -0.011068 -0.000005 -0.000000 -2.881563 6.773554 25.424309 -1.618721 -0.646877 14.152249 -16.251861 -4.346278 0.293017 0.959814 81.701726 -27.610080 104.166081 18.854473 11.417784 46.583427 -37.510723 -0.177961 -3.229453 -5.680402 0.286956 1.400445 -5.717779 -2.502338 6.478145 0.036186 -0.069959 -0.025990 2.679348 6.961809 -27.203032 19.917480 -5.861268 34.368662 25.643824 3.549970 -0.808169 -0.000001 0.000007 -0.000001 -0.005509 0.093383 -0.082385 4.730325 -1.174107 1.844921 -146.719881 94.614465 144.466847 -0.177084 42.297862 -3.288985 0.000001 0.000007 0.000004 -0.006019 -0.093397 -0.082485 -4.540798 41.172712 0.759967 178.340310 133.486294 -176.503699 -7.060721 57.723513 6.940209 
